<?xml version="1.0" encoding="UTF-8"?>
<svg xmlns="http://www.w3.org/2000/svg" width="64" height="64" viewBox="116 64 65 64" role="img" aria-labelledby="title">
  <title id="title">HomeWorldz mark</title>
  <path fill="#0B638C" d="M151.125 65.1981l22.5359 13.011c1.6177.9169 2.6224 2.6326 2.6224 4.4988v13.1258l-3.2168-1.8572v-11.269c0-.7324-.4037-1.3708-1.0002-1.7051l-22.565-13.0278c-.2927-.175-.6348-.2757-1.0005-.2757-.3658 0-.7074.1007-1.0002.2757L124.936 81.002c-.5913.3305-.9936.9601-1.0016 1.6839v9.8453l-3.2165 1.8569V82.6466c.0214-1.8456 1.0242-3.5351 2.6249-4.441l22.5338-13.0099c.796-.4687 1.6999-.7151 2.6241-.7151.9242 0 1.8289.2465 2.6247.7155z"/>
  <path fill="#0B638C" d="M148.009 84.7865h-3.4634v-3.4638h3.4635zm-3.4634-7.908h3.4638v3.4636h-3.4638zm4.4444 0h3.4636v3.4639h-3.4638zm3.4636 4.4445v3.4635h-3.4639v-3.4637z"/>
  <path fill="#58B235" d="M176.283 101.027v7.7923c0 1.8443-.9839 3.5444-2.5782 4.4725l-23.31 13.4588h-.1769a5.18 5.18 0 0 1-3.4355 0h-.1772l-23.3492-13.4807-.022-.0132c-1.559-.9334-2.517-2.6151-2.517-4.4374v-.0768l2.9238-1.6688.2927.2282v1.5174c0 .7128.3825 1.3362.9532 1.677l22.5802 13.0375c.2989.1857.6513.2937 1.0291.2937.3777 0 .7305-.108 1.0293-.2937l22.5646-13.0263c.5811-.3383.9723-.9675.9723-1.6882V101.027z"/>
  <path fill="#58B235" d="m158.62 90.1582 17.6625 10.1975v2.0309h-2.9158l-16.3705-9.4515c-.2927-.175-.6348-.2757-1.0005-.2757-.3658 0-.7074.1007-1.0002.2757l-31.5174 17.8941-1.645-2.6698 31.5381-18.0016c.796-.4687 1.6999-.7151 2.6241-.7151.9242 0 1.8289.2466 2.6247.7155z"/>
  <path fill="#58B235" d="m136.718 92.705 9.2632 5.348-3.2436 1.8418-7.6434-4.4128c-.2927-.175-.6348-.2757-1.0005-.2757-.3658 0-.7074.1007-1.0002.2757l-9.4509 5.4565v-.0973l-2.924 1.6883v-3.6173l10.7518-6.2076c.796-.4687 1.6999-.7151 2.6241-.7151.9242 0 1.8289.2466 2.6247.7155z"/>
  <path fill="#58B235" d="m164.466 88.0383 5.869 7.6827h-3.036l4.426 5.794h-3.264l3.964 5.189h-2.74l3.322 4.35h-7.375v6.11H163.3v-6.11h-7.376l3.323-4.35h-2.74l3.964-5.189h-3.265l4.426-5.794h-3.035z"/>
  <path fill="#58B235" d="m151.562 100.942 4.122 5.397h-2.132l3.109 4.07h-2.293l2.785 3.645h-1.925l2.334 3.056h-5.181v7.884h-1.638v-7.884h-5.182l2.335-3.056h-1.925l2.784-3.645h-2.293l3.109-4.07h-2.132z"/>
</svg>
