<?xml version="1.0" encoding="UTF-8"?>
<!DOCTYPE svg PUBLIC "-//W3C//DTD SVG 1.1//EN" "http://www.w3.org/Graphics/SVG/1.1/DTD/svg11.dtd">
<!-- Creator: CorelDRAW -->
<svg xmlns="http://www.w3.org/2000/svg" xml:space="preserve" width="120mm" height="88mm" style="shape-rendering:geometricPrecision; text-rendering:geometricPrecision; image-rendering:optimizeQuality; fill-rule:evenodd; clip-rule:evenodd"
viewBox="89 61 120 88"
 xmlns:xlink="http://www.w3.org/1999/xlink">
 <defs>
  <style type="text/css">
   <![CDATA[
    .fil0 {fill:none}
    .fil2 {fill:#0B638C}
    .fil3 {fill:#58B235}
    .fil1 {fill:#58B235;fill-rule:nonzero}
    .fil4 {fill:#0B638C;fill-rule:nonzero}
   ]]>
  </style>
 </defs>
 <g id="Layer_x0020_1">
  <metadata id="CorelCorpID_0Corel-Layer"/>
  <rect class="fil0" width="297" height="210"/>
  <g id="_269480784">
   <g>
    <path id="_269483232" class="fil1" d="M92.4771 130.889l2.5811 0 0 5.0483c0.5071,-0.4389 1.0207,-0.7672 1.5343,-0.985 0.5136,-0.221 1.0337,-0.3315 1.5603,-0.3315 1.0305,0 1.8952,0.3575 2.6006,1.0694 0.6046,0.6144 0.9037,1.5181 0.9037,2.7144l0 6.8459 -2.5616 0 0 -4.5412c0,-1.2028 -0.0552,-2.0154 -0.169,-2.438 -0.117,-0.4259 -0.3121,-0.7444 -0.5884,-0.9525 -0.2763,-0.2113 -0.6144,-0.3153 -1.0207,-0.3153 -0.5299,0 -0.9817,0.1756 -1.3588,0.5234 -0.3771,0.3478 -0.6404,0.8256 -0.7867,1.427 -0.0747,0.3121 -0.1137,1.024 -0.1137,2.1357l0 4.1609 -2.5811 0 0 -14.3615z"/>
    <path id="_269480040" class="fil1" d="M108.768 134.621c0.9785,0 1.8984,0.247 2.7599,0.7346 0.8582,0.4876 1.5311,1.154 2.0122,1.9894 0.4843,0.8387 0.7249,1.7424 0.7249,2.7144 0,0.9784 -0.2438,1.8919 -0.7282,2.7435 -0.4876,0.8517 -1.1475,1.5149 -1.9862,1.996 -0.8386,0.4778 -1.7618,0.7184 -2.7728,0.7184 -1.4856,0 -2.7533,-0.5299 -3.8033,-1.5864 -1.05,-1.0564 -1.5766,-2.3405 -1.5766,-3.852 0,-1.6189 0.5949,-2.9679 1.7814,-4.0471 1.0402,-0.9395 2.2365,-1.4108 3.5887,-1.4108zm0.0391 2.4477c-0.8062,0 -1.4791,0.2828 -2.0155,0.8452 -0.5363,0.5624 -0.8029,1.2808 -0.8029,2.1552 0,0.9037 0.2633,1.6319 0.7964,2.191 0.5299,0.5591 1.1995,0.8386 2.0122,0.8386 0.8127,0 1.4888,-0.2828 2.0284,-0.8484 0.5396,-0.5656 0.8095,-1.2905 0.8095,-2.1812 0,-0.8874 -0.2634,-1.6091 -0.7932,-2.1649 -0.5331,-0.5559 -1.2093,-0.8355 -2.0349,-0.8355z"/>
    <path id="_269483400" class="fil1" d="M115.961 134.887l2.6103 0 0 1.193c0.4453,-0.4908 0.9394,-0.8549 1.4823,-1.0955 0.5428,-0.2405 1.1345,-0.364 1.7749,-0.364 0.6468,0 1.232,0.1592 1.7521,0.4778 0.5201,0.3186 0.9394,0.7802 1.258,1.3913 0.4128,-0.6111 0.9199,-1.0727 1.5181,-1.3913 0.6013,-0.3186 1.2547,-0.4778 1.9666,-0.4778 0.7379,0 1.3848,0.1723 1.9439,0.5168 0.5591,0.3413 0.959,0.7899 1.2028,1.3426 0.247,0.5526 0.3673,1.4498 0.3673,2.6948l0 6.0755 -2.6168 0 0 -5.2564c0,-1.1767 -0.1463,-1.9699 -0.4388,-2.386 -0.2926,-0.416 -0.7314,-0.6241 -1.3133,-0.6241 -0.4454,0 -0.8452,0.1268 -1.1963,0.3803 -0.3543,0.2536 -0.6143,0.6047 -0.7866,1.0533 -0.1723,0.4486 -0.2568,1.167 -0.2568,2.1584l0 4.6745 -2.6201 0 0 -5.0191c0,-0.9264 -0.0682,-1.5993 -0.2048,-2.0154 -0.1365,-0.4161 -0.3413,-0.7249 -0.6144,-0.9264 -0.273,-0.2048 -0.6013,-0.3056 -0.9882,-0.3056 -0.4323,0 -0.8256,0.13 -1.1767,0.3868 -0.3511,0.2568 -0.6176,0.6177 -0.7899,1.0793 -0.1756,0.4648 -0.2633,1.193 -0.2633,2.1909l0 4.6095 -2.6103 0 0 -10.3632z"/>
    <path id="_269480520" class="fil1" d="M144.697 140.823l-8.3543 0c0.1203,0.7346 0.4453,1.3197 0.9687,1.7553 0.5234,0.4356 1.1898,0.6534 2.0024,0.6534 0.972,0 1.8074,-0.3413 2.5063,-1.0207l2.191 1.0305c-0.5462,0.7736 -1.1995,1.3458 -1.9634,1.7196 -0.7607,0.3706 -1.6644,0.5559 -2.7144,0.5559 -1.6253,0 -2.9483,-0.5137 -3.9691,-1.5376 -1.0239,-1.0272 -1.5343,-2.3113 -1.5343,-3.8521 0,-1.5831 0.5104,-2.8931 1.5278,-3.9398 1.0208,-1.0435 2.2983,-1.5668 3.8326,-1.5668 1.6318,0 2.9581,0.5233 3.9821,1.5668 1.0207,1.0467 1.5343,2.425 1.5343,4.1381l-0.0097 0.4974zm-2.6103 -2.048c-0.1723,-0.5786 -0.5104,-1.0467 -1.0143,-1.4108 -0.5038,-0.3608 -1.0922,-0.5428 -1.7586,-0.5428 -0.7216,0 -1.3588,0.2048 -1.9049,0.6111 -0.3413,0.2536 -0.6599,0.7022 -0.9524,1.3425l5.6302 0z"/>
    <path id="_269483424" class="fil2" d="M151.125 65.1981l22.5359 13.011c1.6177,0.9169 2.6224,2.6326 2.6224,4.4988l-0.0001 0.033 0.0001 13.0928 -3.2168 -1.8572 0 -11.259 -0.0001 0 0.0001 -0.0096c0,-0.7324 -0.4037,-1.3708 -1.0002,-1.7051l-22.565 -13.0278 -0.0005 0c-0.2927,-0.175 -0.6348,-0.2757 -1.0005,-0.2757 -0.3658,0 -0.7074,0.1007 -1.0002,0.2757l-0.0008 0 -22.5633 13.027c-0.5913,0.3305 -0.9936,0.9601 -1.0016,1.6839l-0.0004 0 0 0.022 0 9.8253 -3.2165 1.8569 0 -11.7415c0.0214,-1.8456 1.0242,-3.5351 2.6249,-4.441l22.5338 -13.0099c0.796,-0.4687 1.6999,-0.7151 2.6241,-0.7151 0.9242,0 1.8289,0.2465 2.6247,0.7155z"/>
   </g>
   <path id="_269483520" class="fil2" d="M148.009 84.7865l-3.4634 0 0 -3.4638 3.4635 0.0001 -0.0001 3.4637zm-3.4634 -7.908l3.4638 0 -0.0001 3.4636 -3.4637 -0.0001 0 -3.4635zm4.4444 0l3.4636 0 0 3.4639 -3.4638 -0.0001 0.0002 -3.4638zm3.4636 4.4445l0 3.4635 -3.4639 0 0.0001 -3.4637 3.4638 0.0002z"/>
   <g>
    <path id="_269480736" class="fil3" d="M176.283 101.027l0 7.7923c0,1.8443 -0.9839,3.5444 -2.5782,4.4725l-23.31 13.4588 -0.1769 0c-0.5493,0.1935 -1.1295,0.2937 -1.7179,0.2937 -0.5884,0 -1.1687,-0.1002 -1.7176,-0.2937l-0.1772 0 -23.3492 -13.4807 -0.022 -0.0132c-1.559,-0.9334 -2.517,-2.6151 -2.517,-4.4374l0.0002 -0.0427 0 -0.0341 2.9238 -1.6688 0.2927 0.2282 0 1.4983 0.0003 0 -0.0003 0.0191c0,0.7128 0.3825,1.3362 0.9532,1.677l-0.0004 0.0006 22.5806 13.0369 0.0038 0c0.2989,0.1857 0.6513,0.2937 1.0291,0.2937 0.3777,0 0.7305,-0.108 1.0293,-0.2937l0.0035 0 22.5613 -13.0257 -0.0002 -0.0006c0.5811,-0.3383 0.9723,-0.9675 0.9723,-1.6882l-0.0002 -0.014 0.0002 0 0 -7.7783 3.2168 0z"/>
    <path id="_269483616" class="fil3" d="M158.62 90.1582l17.6625 10.1975 0 2.0309 -2.9158 0 -16.3705 -9.4515 -0.0004 0c-0.2927,-0.175 -0.6348,-0.2757 -1.0005,-0.2757 -0.3658,0 -0.7074,0.1007 -1.0002,0.2757l-0.0008 0 -31.5162 17.8941 -1.645 -2.6698 31.5381 -18.0016c0.796,-0.4687 1.6999,-0.7151 2.6241,-0.7151 0.9242,0 1.8289,0.2465 2.6247,0.7155z"/>
    <path id="_269481000" class="fil3" d="M136.718 92.705l9.2632 5.348 -3.2436 1.8418 -7.6434 -4.4128 -0.0004 0c-0.2927,-0.175 -0.6348,-0.2757 -1.0005,-0.2757 -0.3658,0 -0.7074,0.1007 -1.0002,0.2757l-0.0008 0 -9.4509 5.4565 0 -0.0973 -2.924 1.6883 0 -3.6173 10.7518 -6.2076c0.796,-0.4687 1.6999,-0.7151 2.6241,-0.7151 0.9242,0 1.8289,0.2466 2.6247,0.7155z"/>
    <polygon id="_269481096" class="fil3" points="164.466,88.0383 170.335,95.721 167.299,95.721 171.725,101.515 168.461,101.515 172.425,106.704 169.685,106.704 173.007,111.054 165.632,111.054 165.632,117.164 163.3,117.164 163.3,111.054 155.924,111.054 159.247,106.704 156.507,106.704 160.471,101.515 157.206,101.515 161.632,95.721 158.597,95.721 "/>
    <polygon id="_269481240" class="fil3" points="151.562,100.942 155.684,106.339 153.552,106.339 156.661,110.409 154.368,110.409 157.153,114.054 155.228,114.054 157.562,117.11 152.381,117.11 152.381,124.994 150.743,124.994 150.743,117.11 145.561,117.11 147.896,114.054 145.971,114.054 148.755,110.409 146.462,110.409 149.571,106.339 147.439,106.339 "/>
    <polygon id="_269481408" class="fil4" points="145.571,134.887 146.943,134.887 150.116,142.413 153.438,134.887 153.679,134.887 156.991,142.413 160.219,134.887 161.61,134.887 157.115,145.251 156.858,145.251 153.562,137.833 150.239,145.251 149.992,145.251 "/>
    <path id="_269481624" class="fil4" d="M167.849 134.621c1.5929,0 2.9127,0.5786 3.9626,1.7358 0.9525,1.0533 1.4271,2.3015 1.4271,3.7416 0,1.4465 -0.5039,2.7143 -1.5083,3.7968 -1.0078,1.0824 -2.3015,1.6221 -3.8814,1.6221 -1.5863,0 -2.8833,-0.5397 -3.891,-1.6221 -1.0077,-1.0825 -1.5083,-2.3503 -1.5083,-3.7968 0,-1.4336 0.4746,-2.6786 1.427,-3.7318 1.0467,-1.1638 2.373,-1.7456 3.9723,-1.7456zm0 1.3067c-1.1052,0 -2.0544,0.4096 -2.8476,1.2288 -0.7931,0.8192 -1.1897,1.8074 -1.1897,2.9711 0,0.7477 0.1788,1.4466 0.5429,2.0935 0.3608,0.6501 0.8484,1.1475 1.466,1.5018 0.6144,0.3511 1.2905,0.5266 2.0284,0.5266 0.7347,0 1.4108,-0.1755 2.0285,-0.5266 0.6143,-0.3543 1.1052,-0.8517 1.466,-1.5018 0.3609,-0.6469 0.5429,-1.3458 0.5429,-2.0935 0,-1.1637 -0.3998,-2.1519 -1.1963,-2.9711 -0.7964,-0.8192 -1.7423,-1.2288 -2.8411,-1.2288z"/>
    <path id="_269481864" class="fil4" d="M175.009 134.887l1.362 0 0 1.5148c0.4064,-0.5948 0.8355,-1.0402 1.2841,-1.336 0.4518,-0.2958 0.9199,-0.4453 1.4108,-0.4453 0.3673,0 0.7606,0.1202 1.18,0.3543l-0.6957 1.1247c-0.2795,-0.1235 -0.5136,-0.182 -0.7054,-0.182 -0.4421,0 -0.8712,0.182 -1.284,0.5461 -0.4128,0.3673 -0.7282,0.9329 -0.9427,1.7001 -0.1658,0.5916 -0.2471,1.7846 -0.2471,3.5823l0 3.5042 -1.362 0 0 -10.3632z"/>
    <polygon id="_269482176" class="fil4" points="181.859,130.889 183.192,130.889 183.192,145.251 181.859,145.251 "/>
    <path id="_269482152" class="fil4" d="M196.068 130.889l0 14.3615 -1.3165 0 0 -1.7814c-0.5559,0.6794 -1.1832,1.1898 -1.8789,1.5343 -0.6956,0.3414 -1.4563,0.5137 -2.282,0.5137 -1.466,0 -2.7175,-0.5332 -3.7578,-1.5961 -1.0369,-1.063 -1.557,-2.3568 -1.557,-3.8813 0,-1.4921 0.5233,-2.7664 1.5733,-3.8261 1.0467,-1.0597 2.308,-1.5928 3.7805,-1.5928 0.8517,0 1.6189,0.182 2.308,0.5428 0.6892,0.3641 1.2938,0.907 1.8139,1.6286l0 -5.9032 1.3165 0zm-5.3343 5.019c-0.7412,0 -1.4271,0.1821 -2.0577,0.5462 -0.6274,0.3673 -1.128,0.8776 -1.4986,1.5408 -0.3706,0.6599 -0.5591,1.3588 -0.5591,2.0934 0,0.7314 0.1885,1.4303 0.5624,2.0967 0.377,0.6664 0.8777,1.1833 1.5115,1.5571 0.6307,0.3706 1.3068,0.5558 2.0317,0.5558 0.7314,0 1.4238,-0.1852 2.0772,-0.5526 0.6534,-0.3673 1.1572,-0.8646 1.5083,-1.4953 0.3543,-0.6274 0.5299,-1.336 0.5299,-2.1227 0,-1.1995 -0.3966,-2.2039 -1.1865,-3.0101 -0.7899,-0.8062 -1.7619,-1.2093 -2.9191,-1.2093z"/>
    <polygon id="_269480424" class="fil4" points="198.236,134.887 205.846,134.887 199.979,144.071 205.657,144.071 205.657,145.251 197.684,145.251 203.551,136.061 198.236,136.061 "/>
   </g>
  </g>
 </g>
</svg>
